HIERARCHY
ROOT root
{
	OFFSET 0.000000 0.000000 0.000000
	CHANNELS 6 Xposition Yposition Zposition Zrotation Yrotation Xrotation
	JOINT lhip
	{
		OFFSET 0.058581 -0.082280 -0.017664
		CHANNELS 3 Zrotation Yrotation Xrotation
		JOINT lknee
		{
			OFFSET 0.043451 -0.386469 0.008037
			CHANNELS 3 Zrotation Yrotation Xrotation
			JOINT lankle
			{
				OFFSET -0.014790 -0.426874 -0.037428
				CHANNELS 3 Zrotation Yrotation Xrotation
				JOINT ltoe
				{
					OFFSET 0.041054 -0.060286 0.122042
					CHANNELS 3 Zrotation Yrotation Xrotation
					End Site
					{
						OFFSET 0.000000 0.000000 0.000000
					}
				}
			}
		}
	}
	JOINT rhip
	{
		OFFSET -0.060310 -0.090513 -0.013543
		CHANNELS 3 Zrotation Yrotation Xrotation
		JOINT rknee
		{
			OFFSET -0.043257 -0.383688 -0.004843
			CHANNELS 3 Zrotation Yrotation Xrotation
			JOINT rankle
			{
				OFFSET 0.019056 -0.420046 -0.034562
				CHANNELS 3 Zrotation Yrotation Xrotation
				JOINT rtoe
				{
					OFFSET -0.034840 -0.062106 0.130323
					CHANNELS 3 Zrotation Yrotation Xrotation
					End Site
					{
						OFFSET 0.000000 0.000000 0.000000
					}
				}
			}
		}
	}
	JOINT lowerback
	{
		OFFSET 0.004439 0.124404 -0.038385
		CHANNELS 3 Zrotation Yrotation Xrotation
		JOINT upperback
		{
			OFFSET 0.004488 0.137956 0.026820
			CHANNELS 3 Zrotation Yrotation Xrotation
			JOINT chest
			{
				OFFSET -0.002265 0.056032 0.002855
				CHANNELS 3 Zrotation Yrotation Xrotation
				JOINT lowerneck
				{
					OFFSET -0.013390 0.211636 -0.033468
					CHANNELS 3 Zrotation Yrotation Xrotation
					JOINT upperneck
					{
						OFFSET 0.010113 0.088937 0.050410
						CHANNELS 3 Zrotation Yrotation Xrotation
						End Site
						{
							OFFSET 0.000000 0.000000 0.000000
						}
					}
				}
				JOINT lclavicle
				{
					OFFSET 0.071702 0.114000 -0.018898
					CHANNELS 3 Zrotation Yrotation Xrotation
					JOINT lshoulder
					{
						OFFSET 0.122921 0.045205 -0.019046
						CHANNELS 3 Zrotation Yrotation Xrotation
						JOINT lelbow
						{
							OFFSET 0.255332 -0.015649 -0.022946
							CHANNELS 3 Zrotation Yrotation Xrotation
							JOINT lwrist
							{
								OFFSET 0.265709 0.012698 -0.007375
								CHANNELS 3 Zrotation Yrotation Xrotation
								End Site
								{
									OFFSET 0.000000 0.000000 0.000000
								}
							}
						}
					}
				}
				JOINT rclavicle
				{
					OFFSET -0.082954 0.112472 -0.023707
					CHANNELS 3 Zrotation Yrotation Xrotation
					JOINT rshoulder
					{
						OFFSET -0.113228 0.046853 -0.008472
						CHANNELS 3 Zrotation Yrotation Xrotation
						JOINT relbow
						{
							OFFSET -0.260127 -0.014369 -0.031269
							CHANNELS 3 Zrotation Yrotation Xrotation
							JOINT rwrist
							{
								OFFSET -0.269108 0.006794 -0.006027
								CHANNELS 3 Zrotation Yrotation Xrotation
								End Site
								{
									OFFSET 0.000000 0.000000 0.000000
								}
							}
						}
					}
				}
			}
		}
	}
}
MOTION
Frames: 11
Frame Time: 0.033333
0.151289 -1.156157 0.991370 -67.944482 -2.019221 85.170614 -0.784833 1.471982 3.842697 -5.614197 -13.588472 7.082217 1.112767 6.885300 -18.068376 0.000000 -0.000000 0.000000 -2.720650 7.365100 -42.849439 11.527173 -4.850412 83.834182 5.739636 5.581045 -20.345988 0.000000 -0.000000 0.000000 -1.847501 -10.853821 16.674610 4.011658 -5.650928 -2.286022 -2.568759 -4.178488 5.350213 10.134995 -6.669194 -2.539115 2.217643 -14.462423 11.921404 -17.869792 5.424729 -3.907908 -60.360745 -3.904175 7.602212 13.845821 -37.614156 -4.200153 -3.252160 -8.775956 -16.849420 9.776715 -6.372819 -8.944259 28.024189 13.084846 -8.751819 -92.412353 45.835501 -79.468138 5.523472 16.416408 -25.723205 
0.132422 -1.162713 0.990469 -68.621129 -1.606912 84.873992 0.005958 2.596945 5.556809 -5.749851 -13.476571 6.932570 0.562398 6.340965 -18.760548 0.000000 -0.000000 0.000000 -2.939808 5.943940 -43.534795 10.843618 -6.302591 77.032186 7.233140 5.475187 -18.958992 0.000000 -0.000000 0.000000 -1.377869 -10.761835 16.874890 4.278681 -6.044237 -0.343112 -2.011187 -4.391913 4.503842 9.883988 -7.507829 -4.408129 2.593568 -14.447907 11.304379 -17.677812 2.853639 -3.590716 -60.675108 -6.031704 8.481210 12.690368 -37.529809 -3.207465 -3.567117 -10.984040 -16.347798 9.168651 -6.769516 -10.951993 27.876576 11.481871 -8.911882 -92.848091 46.318489 -80.832963 6.986565 17.284338 -26.000722 
0.113140 -1.169667 0.988259 -69.873249 -1.517485 85.453695 0.070746 2.804601 6.366673 -5.510564 -12.257070 6.870101 0.110526 5.915288 -19.988801 0.000000 -0.000000 0.000000 -3.295791 4.769345 -43.596292 9.800268 -7.825480 68.323423 8.573172 4.340835 -16.988812 0.000000 -0.000000 0.000000 -0.956336 -10.473792 16.126711 4.328253 -6.608616 -0.253574 -1.917284 -4.909195 4.628359 9.864815 -7.443686 -3.863104 3.030739 -14.457999 10.758090 -17.438621 2.054618 -3.626048 -60.935018 -8.301229 10.079059 12.485420 -37.175217 -1.163441 -5.741967 -12.735596 -15.647545 8.983442 -7.303305 -11.244103 27.404724 11.566420 -8.390422 -92.260101 46.526606 -80.387146 7.723846 17.841851 -27.719782 
0.092497 -1.175512 0.984823 -72.427459 -1.860288 85.927713 -0.476237 2.554847 7.708002 -5.494882 -10.520553 6.431784 -0.004768 6.770952 -21.313439 0.000000 -0.000000 0.000000 -2.930463 5.010255 -42.011797 7.733675 -9.154966 58.273403 9.127932 -0.079283 -16.045241 0.000000 -0.000000 0.000000 -1.030225 -10.440778 17.321257 3.921556 -6.017587 -3.341229 -1.747113 -5.300069 5.320353 9.593567 -8.348340 -3.831745 2.942572 -13.486962 11.945701 -16.996708 1.877350 -2.326468 -61.608819 -10.114032 11.599291 11.613964 -36.864554 0.467978 0.269941 -16.222470 -15.425101 8.278486 -7.532743 -10.873482 27.262428 11.197462 -7.107863 -91.756776 46.404572 -79.879685 6.603280 18.834360 -30.074796 
0.072455 -1.182626 0.980559 -74.385184 -2.084436 86.302695 -1.012368 2.745140 8.346376 -5.326583 -8.947747 7.561590 -0.531291 6.713928 -22.326492 0.000000 -0.000000 0.000000 -1.955658 3.807752 -39.307287 4.179376 -12.461720 48.662514 8.547523 -4.876314 -14.928096 0.000000 -0.000000 0.000000 0.008423 -10.654932 17.294067 2.880236 -6.236949 -3.482506 -1.655484 -4.650431 5.181319 8.378377 -10.275474 -3.915739 4.390649 -12.402012 11.295282 -17.498537 0.784862 -3.259647 -60.679918 -11.243941 11.477727 13.799114 -41.889932 0.667412 -7.661465 -13.092687 -11.350047 6.978387 -7.806008 -12.046537 28.056422 8.896303 -7.071046 -93.250005 46.905814 -82.577822 8.667970 19.259033 -30.595359 
0.052898 -1.188580 0.975502 -77.592648 -3.028728 87.068947 -2.466803 3.393384 8.317258 -5.580519 -8.010536 9.345093 0.546476 7.488170 -23.765294 0.000000 -0.000000 0.000000 -0.533049 2.942473 -36.991300 1.398261 -15.498030 40.105822 6.267475 -12.358287 -15.005224 0.000000 -0.000000 0.000000 -0.533712 -10.395194 16.262700 2.401707 -6.121555 -3.605078 -1.747163 -5.493196 6.563689 8.323246 -10.656068 -5.580839 4.065771 -10.923911 11.763322 -17.088298 1.773232 -2.543285 -61.197995 -14.134634 12.543058 14.338742 -42.793685 0.955245 -6.013233 -11.606242 -18.761020 7.272953 -7.630226 -11.168718 27.435269 11.560063 -5.909836 -92.760139 45.086368 -81.492695 9.186349 19.621633 -33.075502 
0.031684 -1.193879 0.970469 -80.847483 -3.602683 88.358561 -4.088369 2.554260 7.563372 -5.305606 -5.537816 11.287776 0.599933 8.520124 -24.868284 0.000000 -0.000000 0.000000 1.459223 2.157617 -35.182213 -1.206046 -18.892026 33.390232 5.483358 -18.427241 -14.971430 0.000000 -0.000000 0.000000 -0.537005 -9.858956 14.908492 2.192160 -6.517352 -3.931015 -1.717604 -5.713926 7.275782 7.788240 -10.308414 -7.166005 3.792606 -9.088606 12.901436 -17.132773 1.015702 -1.898742 -61.832513 -15.629584 13.827492 15.884066 -42.544066 -1.767615 2.116657 -14.958103 -20.457438 6.861348 -7.073882 -10.836728 26.772447 12.117811 -4.624499 -92.326096 44.151320 -81.413651 7.744306 20.470101 -35.635961 
0.009773 -1.198583 0.966447 -84.232529 -4.237431 89.709975 -5.418464 2.316346 6.007862 -5.424449 -3.094459 14.725540 0.751140 8.814940 -25.435298 0.000000 -0.000000 0.000000 2.825441 1.438516 -33.333875 -2.147214 -19.938842 29.092711 4.906249 -20.530062 -11.048937 0.000000 -0.000000 0.000000 -0.281791 -9.407586 13.975368 1.929895 -6.903574 -4.340072 -1.900312 -5.537996 7.717920 7.421716 -10.319597 -8.735072 4.130817 -7.880055 13.179696 -17.066303 1.005624 -2.636832 -62.045549 -16.976661 14.544757 15.027309 -43.159349 -2.022132 4.297954 -15.498726 -20.841398 6.564388 -6.959520 -11.061474 26.516826 12.597708 -3.823422 -92.609086 43.254874 -82.312636 8.430324 21.192569 -37.217207 
-0.015868 -1.202069 0.964823 -88.022144 -4.389031 90.477527 -5.477179 3.911889 4.366469 -6.373748 -1.603313 19.796451 0.038470 8.104732 -25.475787 0.000000 -0.000000 0.000000 4.624702 0.796684 -29.979886 0.052430 -16.260013 25.354943 3.186586 -16.796179 -11.990332 0.000000 -0.000000 0.000000 0.376141 -8.827854 13.620839 1.714832 -7.321781 -4.016163 -1.735459 -6.045436 6.772696 6.755624 -10.275772 -9.139715 4.030044 -6.264825 11.857554 -18.250608 -0.419173 -1.920424 -61.129956 -15.825860 12.884038 18.865518 -46.377994 -2.411821 -0.835657 -14.094923 -18.425627 5.949876 -5.560441 -10.090979 25.554926 12.335165 -5.835015 -93.169927 44.419317 -83.085695 8.874935 21.831589 -39.806920 
-0.040776 -1.204925 0.963654 -92.254939 -4.499685 91.214096 -5.207001 4.408114 1.176659 -7.748583 1.659119 27.322087 -2.026490 7.566076 -23.788848 0.000000 -0.000000 0.000000 5.742348 1.371456 -27.480563 1.208529 -13.202437 23.765973 2.541960 -15.092632 -14.976189 0.000000 -0.000000 0.000000 0.437367 -7.905817 13.714193 2.109917 -7.373639 -4.204603 -1.491064 -6.272601 7.040402 6.580119 -9.852675 -12.377733 3.475382 -5.605761 12.991109 -18.293006 -1.180790 -2.641479 -62.102979 -16.074777 13.612384 18.224597 -45.719316 -4.817225 6.124567 -16.724084 -19.023539 5.503815 -5.046440 -10.895517 24.223952 12.207984 -5.844086 -92.736513 45.364695 -83.810225 8.540787 22.636389 -41.267837 
-0.064454 -1.205803 0.964828 -96.842392 -4.261404 91.220100 -2.918793 5.356735 -3.002380 -9.831867 6.285983 37.360008 -5.224858 4.585023 -18.046072 0.000000 -0.000000 0.000000 7.130324 2.460550 -25.432817 0.725997 -12.203687 23.933249 0.889403 -13.023539 -15.598076 0.000000 -0.000000 0.000000 0.599035 -7.294654 14.369082 2.165925 -7.292461 -2.984719 -1.254051 -5.427154 5.504363 6.104943 -9.037185 -12.126070 4.415791 -5.453557 11.328448 -17.715000 -3.922758 -2.826749 -62.007550 -15.051497 14.002368 19.418761 -46.568799 -6.232951 4.946468 -16.336896 -18.652501 4.859951 -3.885215 -10.806623 23.730034 10.693766 -7.020550 -93.226695 46.488034 -84.482255 9.248264 23.246358 -42.541468 
